<svg xmlns="http://www.w3.org/2000/svg" width="24" height="24" viewBox="0 0 24 24">
  <g fill="none" fill-rule="evenodd">
    <rect width="24" height="24"/>
    <g transform="translate(2 2)">
      <path fill="#1540A9" fill-rule="nonzero" d="M0,10 C0,4.4771525 4.47593818,0 10,0 L10,0 C15.5228475,0 20,4.47593818 20,10 L20,10 C20,15.5228475 15.5240618,20 10,20 L10,20 C4.4771525,20 0,15.5240618 0,10 L0,10 Z"/>
      <path fill="#FFF" d="M11,5.24623782 C11,3.49009747 11,2.33933723 11,0.0390253411 L9.99832031,0.0390253411 C4.47625,0.0399220273 0,5.48846004 0,11 L5.21738281,11 L5.21738281,7.08725146 L8.15535156,10.0194932 L9.97328125,10.0194932 C9.98222656,10.0106043 9.99113281,10.0017154 10.0000391,9.99278752 C10.0000391,9.32038986 10.0000391,8.72042885 10.0000391,8.17851852 L7.06203125,5.24623782 L11,5.24623782 Z"/>
      <path fill="#CF142B" d="M5.05917969,1.34077973 C3.49515625,2.22962963 2.19492188,3.52732943 1.30433594,5.08830409 L1.30433594,11.0194932 L4,10.9999703 L4,4.00003899 L11,4 L11,1.34077973 L5.05917969,1.34077973 Z"/>
      <path fill="#CF142B" d="M10,8.79216374 L6.44714844,5.2462768 L5.21742188,5.24625948 C5.21742188,5.24625948 5.21742188,5.24625948 5.21742188,5.24625948 L10,10.0194932 C10,10.0194932 10,9.17329435 10,8.79216374 Z"/>
      <path fill="#FFF" d="M6.03105469,11.7552437 L6.57988281,12.9005848 L7.81921875,12.6146979 L7.26421875,13.757076 L8.26085937,14.5458869 L7.01996094,14.8250292 L7.0234375,16.0945809 L6.03105469,15.3003119 L5.03871094,16.0945809 L5.0421875,14.8250292 L3.80125,14.5458869 L4.79792969,13.757076 L4.24285156,12.6146979 L5.48226562,12.9005848 L6.03105469,11.7552437 Z M14.9720312,13.9249123 L15.2464453,14.4975828 L15.8661328,14.3546199 L15.5885937,14.925809 L16.0869531,15.3202339 L15.4664844,15.4598051 L15.4682031,16.0945809 L14.9720312,15.6974269 L14.4758594,16.0945809 L14.4775781,15.4598051 L13.8571484,15.3202339 L14.3554687,14.925809 L14.0779687,14.3546199 L14.6976172,14.4975828 L14.9720312,13.9249123 Z M12.4192578,7.84982456 L12.6936328,8.42253411 L13.3133203,8.27953216 L13.0358203,8.85072125 L13.5341406,9.2451462 L12.9137109,9.38471735 L12.9153906,10.0194932 L12.4192578,9.62233918 L11.9230859,10.0194932 L11.9247656,9.38471735 L11.3043359,9.2451462 L11.8026563,8.85072125 L11.5251563,8.27953216 L12.1448438,8.42253411 L12.4192578,7.84982456 Z M14.9720312,4.37832359 L15.2464453,4.95103314 L15.8661328,4.80807018 L15.5886328,5.37925926 L16.0869141,5.77364522 L15.4664844,5.91325536 L15.4682031,6.54803119 L14.9720312,6.15087719 L14.4758594,6.54803119 L14.4775781,5.91325536 L13.8571484,5.77364522 L14.3554297,5.37925926 L14.0779687,4.80807018 L14.6976172,4.95103314 L14.9720312,4.37832359 Z M17.201875,6.98194932 L17.47625,7.55465887 L18.0959375,7.41165692 L17.8184375,7.982846 L18.3167578,8.37727096 L17.6962891,8.51688109 L17.6980078,9.15161793 L17.201875,8.75450292 L16.7057031,9.15161793 L16.7073828,8.51688109 L16.0869531,8.37727096 L16.5852734,7.982846 L16.3077734,7.41165692 L16.9274219,7.55465887 L17.201875,6.98194932 Z M15.6074219,10.0194932 L15.8232422,10.6824951 L16.5217578,10.6824951 L15.9566406,11.0922807 L16.1725391,11.7552437 L15.6074219,11.3454971 L15.0423437,11.7552437 L15.2581641,11.0922807 L14.6930859,10.6824951 L15.3915625,10.6824951 L15.6074219,10.0194932 Z"/>
    </g>
    <circle cx="12" cy="12" r="10" stroke="#ffffff" stroke-width="2"/>
  </g>
</svg>